# xmcd
# 
# Track frame offsets:
#     150
#     14584
#     27187
#     42556
#     59234
#     69709
#     86141
#     99035
#     113427
#     128482
#     144810
#     162922
#     177925
# 
# Disc length: 2548
# 
# Revision: 2
# Processed by: cddbd v1.5.2PL0 Copyright (c) Steve Scherf et al.
# Submitted via: fre:ac v1.1beta1pre3
# 
DISCID=a909f20d
DTITLE=Gord Bamford - Honkytonks and Heartaches
DYEAR=2007
DGENRE=Country
TTITLE0=Blame It On That Red Dress
TTITLE1=Postcard from Pasadena
TTITLE2=Blue Collar Palace
TTITLE3=Little Guy
TTITLE4=Stayed 'til Two
TTITLE5=I Said Nothing
TTITLE6=Drinkin' Buddy
TTITLE7=Come Over Here
TTITLE8=In the Palm of Your Hands
TTITLE9=Hurtin' Me Back
TTITLE10=Honkytonks and Heartaches
TTITLE11=Things Go Better With Love
TTITLE12=Years Ago Last Night (with Jessie Farrell)
EXTD=
EXTT0=
EXTT1=
EXTT2=
EXTT3=
EXTT4=
EXTT5=
EXTT6=
EXTT7=
EXTT8=
EXTT9=
EXTT10=
EXTT11=
EXTT12=
PLAYORDER=
